name analog
datacolumns 19
datarows 47
range 0.5805 0.6035
endheader
time	ground_force_vx	ground_force_vy	ground_force_vz	ground_force_px	ground_force_py	ground_force_pz	l_ground_force_vx	l_ground_force_vy	l_ground_force_vz	l_ground_force_px	l_ground_force_py	l_ground_force_pz	ground_torque_x	ground_torque_y	ground_torque_z	l_ground_torque_x	l_ground_torque_y	l_ground_torque_z
0.5805	-0.0	-0.0	-0.0	-11.091667175292969	134.23037719726562	-392.8490295410156	3.962657928466797	-134.95553588867188	-391.52587890625	-0.0	-0.0	-0.0	-0.0	-0.0	-0.0	104654.6484375	16469.779296875	-5311.65966796875
0.581	-0.0	-0.0	-0.0	-11.00249195098877	135.06130981445312	-394.2692565917969	4.554235935211182	-135.13279724121094	-391.6252136230469	-0.0	-0.0	-0.0	-0.0	-0.0	-0.0	104884.8125	15844.3701171875	-5153.1455078125
0.5815	-0.0	-0.0	-0.0	-10.40829849243164	136.19186401367188	-393.9105529785156	5.086428165435791	-135.57379150390625	-395.58880615234375	-0.0	-0.0	-0.0	-0.0	-0.0	-0.0	105638.0625	15195.701171875	-4796.8984375
0.582	-0.0	-0.0	-0.0	-9.842632293701172	136.7853240966797	-395.2075805664063	6.299278259277344	-135.39633178710938	-396.2903137207031	-0.0	-0.0	-0.0	-0.0	-0.0	-0.0	106178.0546875	14254.833984375	-4439.6025390625
0.5825	-0.0	-0.0	-0.0	-8.831661224365234	138.09283447265625	-398.033447265625	7.304055690765381	-136.4575958251953	-398.49798583984375	-0.0	-0.0	-0.0	-0.0	-0.0	-0.0	107250.7734375	13690.279296875	-3984.435791015625
0.583	-0.0	-0.0	-0.0	-8.147899627685547	138.86512756347656	-398.3868103027344	8.959981918334961	-136.4863739013672	-401.9896545410156	-0.0	-0.0	-0.0	-0.0	-0.0	-0.0	108289.3125	13182.1044921875	-3548.320556640625
0.5835	-0.0	-0.0	-0.0	-7.7909650802612305	139.4886932373047	-399.91607666015625	9.787812232971191	-136.7512969970703	-404.66705322265625	-0.0	-0.0	-0.0	-0.0	-0.0	-0.0	109009.9609375	12549.888671875	-3350.1181640625
0.584	-0.0	-0.0	-0.0	-7.701918601989746	140.4692840576172	-402.0349731445313	10.527026176452637	-136.48648071289062	-406.76165771484375	-0.0	-0.0	-0.0	-0.0	-0.0	-0.0	109832.8984375	12106.5830078125	-3043.03564453125
0.5845	-0.0	-0.0	-0.0	-7.374964237213135	141.2127227783203	-403.4496765136719	11.236656188964844	-136.54531860351562	-408.7394714355469	-0.0	-0.0	-0.0	-0.0	-0.0	-0.0	110365.5234375	11642.203125	-2815.15380859375
0.585	-0.0	-0.0	-0.0	-7.641312122344971	141.6884002685547	-403.6882629394531	11.621112823486328	-136.5741424560547	-409.4390869140625	-0.0	-0.0	-0.0	-0.0	-0.0	-0.0	110939.7265625	11121.0068359375	-2775.186767578125
0.5855	-0.0	-0.0	-0.0	-8.000696182250977	142.78802490234375	-406.273193359375	12.034982681274414	-136.66354370117188	-409.6716918945313	-0.0	-0.0	-0.0	-0.0	-0.0	-0.0	111539.140625	11085.7138671875	-2646.400390625
0.586	-0.0	-0.0	-0.0	-8.683378219604492	143.11216735839844	-408.98236083984375	11.739543914794922	-136.7519989013672	-412.58203125	-0.0	-0.0	-0.0	-0.0	-0.0	-0.0	111677.4296875	10875.615234375	-2577.342529296875
0.5865	-0.0	-0.0	-0.0	-8.922603607177734	143.1434326171875	-408.0446472167969	11.650869369506836	-136.36868286132812	-411.9989013671875	-0.0	-0.0	-0.0	-0.0	-0.0	-0.0	111590.8671875	10832.5673828125	-2607.31005859375
0.587	-0.0	-0.0	-0.0	-9.187799453735352	142.4904022216797	-409.3355712890625	11.208683013916016	-136.45765686035156	-411.5351257324219	-0.0	-0.0	-0.0	-0.0	-0.0	-0.0	111595.515625	10768.14453125	-2834.587646484375
0.5875	-0.0	-0.0	-0.0	-8.6824951171875	142.30824279785156	-408.2838439941406	10.82348918914795	-136.39837646484375	-411.1831970214844	-0.0	-0.0	-0.0	-0.0	-0.0	-0.0	111283.5703125	10843.4462890625	-3121.98193359375
0.588	-0.0	-0.0	-0.0	-9.098371505737305	141.24380493164062	-406.8763732910156	10.319433212280272	-135.9576873779297	-410.1286926269531	-0.0	-0.0	-0.0	-0.0	-0.0	-0.0	110840.7734375	10698.8427734375	-3161.595703125
0.5885	-0.0	-0.0	-0.0	-9.27789306640625	140.8260498046875	-407.3358154296875	9.96649932861328	-136.28135681152344	-407.81298828125	-0.0	-0.0	-0.0	-0.0	-0.0	-0.0	110767.34375	10582.5341796875	-3310.237060546875
0.589	-0.0	-0.0	-0.0	-8.716400146484375	139.90721130371094	-405.6842956542969	9.581860542297363	-136.51551818847656	-408.1539306640625	-0.0	-0.0	-0.0	-0.0	-0.0	-0.0	110320.734375	10484.244140625	-3418.838134765625
0.5895	-0.0	-0.0	-0.0	-8.418848991394043	139.49050903320312	-404.2770690917969	9.581969261169434	-136.45579528808594	-405.7236633300781	-0.0	-0.0	-0.0	-0.0	-0.0	-0.0	110007.1328125	10523.75390625	-3458.851318359375
0.59	-0.0	-0.0	-0.0	-8.028945922851562	139.16123962402344	-401.80511474609375	9.550756454467772	-136.78173828125	-404.66156005859375	-0.0	-0.0	-0.0	-0.0	-0.0	-0.0	109429.3203125	10635.6630859375	-3419.684814453125
0.5905	-0.0	-0.0	-0.0	-7.705666065216064	138.26824951171875	-398.16015625	9.401925086975098	-136.3131103515625	-403.3883666992188	-0.0	-0.0	-0.0	-0.0	-0.0	-0.0	108939.296875	10318.3388671875	-3468.01708984375
0.591	-0.0	-0.0	-0.0	-7.165411949157715	137.88998413085938	-397.3343505859375	9.786738395690918	-136.98541259765625	-402.22265625	-0.0	-0.0	-0.0	-0.0	-0.0	-0.0	108516.828125	10280.1953125	-3409.534423828125
0.5915	-0.0	-0.0	-0.0	-6.5978617668151855	137.2645263671875	-394.8404541015625	9.343111991882324	-136.89862060546875	-399.44232177734375	-0.0	-0.0	-0.0	-0.0	-0.0	-0.0	108044.421875	10254.9345703125	-3360.5703125
0.592	-0.0	-0.0	-0.0	-6.074165344238281	137.02378845214844	-392.2703552246094	9.460164070129396	-137.34368896484375	-397.5444946289063	-0.0	-0.0	-0.0	-0.0	-0.0	-0.0	107233.0859375	10278.3916015625	-3321.447021484375
0.5925	-0.0	-0.0	-0.0	-5.707400798797607	136.0171356201172	-388.7224426269531	9.108872413635254	-137.84193420410156	-395.7076110839844	-0.0	-0.0	-0.0	-0.0	-0.0	-0.0	106290.1640625	10279.3642578125	-3519.414306640625
0.593	-0.0	-0.0	-0.0	-5.441841125488281	136.04342651367188	-388.39459228515625	8.606903076171875	-138.2535400390625	-393.3903503417969	-0.0	-0.0	-0.0	-0.0	-0.0	-0.0	105829.515625	10233.7197265625	-3676.363525390625
0.5935	-0.0	-0.0	-0.0	-5.585189342498779	135.48048400878906	-386.852783203125	8.133196830749512	-138.0187225341797	-390.5896911621094	-0.0	-0.0	-0.0	-0.0	-0.0	-0.0	104957.921875	10261.0	-3709.681640625
0.594	-0.0	-0.0	-0.0	-5.6507978439331055	135.0044403076172	-384.5205078125	7.810890197753906	-138.52072143554688	-388.03521728515625	-0.0	-0.0	-0.0	-0.0	-0.0	-0.0	104497.75	10128.88671875	-3795.510498046875
0.5945	-0.0	-0.0	-0.0	-6.033237457275391	134.31951904296875	-383.089111328125	7.425934314727783	-138.6952362060547	-386.9883728027344	-0.0	-0.0	-0.0	-0.0	-0.0	-0.0	103691.9296875	10110.3251953125	-4004.16650390625
0.595	-0.0	-0.0	-0.0	-5.999875068664551	133.9682159423828	-382.493896484375	7.566011428833008	-138.3674774169922	-383.708251953125	-0.0	-0.0	-0.0	-0.0	-0.0	-0.0	103058.3125	9938.1669921875	-3904.802001953125
0.5955	-0.0	-0.0	-0.0	-5.979824542999268	133.2832794189453	-380.9490661621094	7.535430908203125	-137.9862518310547	-382.321044921875	-0.0	-0.0	-0.0	-0.0	-0.0	-0.0	102547.9375	9994.2255859375	-3936.010009765625
0.596	-0.0	-0.0	-0.0	-5.444670677185059	133.18862915039062	-381.0045166015625	7.598690032958984	-137.635498046875	-381.4036254882813	-0.0	-0.0	-0.0	-0.0	-0.0	-0.0	102199.7109375	9882.78125	-3866.394287109375
0.5965	-0.0	-0.0	-0.0	-5.7738447189331055	132.53689575195312	-378.7421569824219	7.981260299682617	-137.0145721435547	-379.5384826660156	-0.0	-0.0	-0.0	-0.0	-0.0	-0.0	101966.0625	9379.9111328125	-3765.88818359375
0.597	-0.0	-0.0	-0.0	-5.263420104980469	132.59530639648438	-378.60888671875	8.693656921386719	-136.6640167236328	-380.57525634765625	-0.0	-0.0	-0.0	-0.0	-0.0	-0.0	101701.9140625	9319.5361328125	-3608.617919921875
0.5975	-0.0	-0.0	-0.0	-5.263420104980469	132.53689575195312	-377.5618286132813	8.815835952758789	-136.77989196777344	-379.52783203125	-0.0	-0.0	-0.0	-0.0	-0.0	-0.0	101641.46875	9307.7958984375	-3548.279052734375
0.598	-0.0	-0.0	-0.0	-5.08826208114624	132.84957885742188	-377.79345703125	8.871078491210938	-136.6122589111328	-380.6956176757813	-0.0	-0.0	-0.0	-0.0	-0.0	-0.0	101596.46875	9118.4931640625	-3537.958740234375
0.5985	-0.0	-0.0	-0.0	-5.139981269836426	132.09124755859375	-378.94873046875	9.256537437438965	-136.4601287841797	-380.2137756347656	-0.0	-0.0	-0.0	-0.0	-0.0	-0.0	101712.921875	9081.490234375	-3389.302734375
0.599	-0.0	-0.0	-0.0	-4.457047462463379	132.74951171875	-379.08441162109375	9.34203815460205	-136.42648315429688	-381.03228759765625	-0.0	-0.0	-0.0	-0.0	-0.0	-0.0	102062.0703125	8909.7568359375	-3381.130126953125
0.5995	-0.0	-0.0	-0.0	-4.347556591033936	132.47508239746094	-380.4688720703125	9.249900817871094	-136.21925354003906	-381.6095275878906	-0.0	-0.0	-0.0	-0.0	-0.0	-0.0	102119.4296875	8792.76953125	-3320.729736328125
0.6	-0.0	-0.0	-0.0	-4.398590564727783	132.05294799804688	-381.2183532714844	8.874537467956543	-136.12742614746094	-380.9244384765625	-0.0	-0.0	-0.0	-0.0	-0.0	-0.0	102243.296875	8498.90234375	-3459.02001953125
0.6005	-0.0	-0.0	-0.0	-4.251100540161133	132.36245727539062	-381.0811767578125	8.751607894897461	-136.11080932617188	-381.0455017089844	-0.0	-0.0	-0.0	-0.0	-0.0	-0.0	102222.125	8552.6474609375	-3726.0673828125
0.601	-0.0	-0.0	-0.0	-3.7468414306640634	131.67662048339844	-381.5572204589844	8.280899047851562	-135.66943359375	-381.2880554199219	-0.0	-0.0	-0.0	-0.0	-0.0	-0.0	102352.78125	8559.9091796875	-3696.61376953125
0.6015	-0.0	-0.0	-0.0	-3.1534433364868164	131.32012939453125	-383.5534057617188	8.31176471710205	-135.37022399902344	-379.649169921875	-0.0	-0.0	-0.0	-0.0	-0.0	-0.0	102639.3828125	8409.2861328125	-3617.821533203125
0.602	-0.0	-0.0	-0.0	-2.622342109680176	131.01344299316406	-382.9539184570313	8.192258834838867	-134.71743774414062	-381.8503723144531	-0.0	-0.0	-0.0	-0.0	-0.0	-0.0	102283.3125	8423.4794921875	-3757.0400390625
0.6025	-0.0	-0.0	-0.0	-2.377535343170166	130.93679809570312	-383.6599731445313	8.01087474822998	-134.0495147705078	-380.57525634765625	-0.0	-0.0	-0.0	-0.0	-0.0	-0.0	102311.59375	8451.056640625	-3905.34375
0.603	-0.0	-0.0	-0.0	-1.5209200382232666	131.0796661376953	-384.7192077636719	7.602293968200684	-133.28152465820312	-380.4534912109375	-0.0	-0.0	-0.0	-0.0	-0.0	-0.0	102240.015625	8096.9951171875	-4043.4375
0.6035	-0.0	-0.0	-0.0	-0.8608851432800293	130.40223693847656	-384.754150390625	7.371419429779053	-132.60589599609375	-380.31488037109375	-0.0	-0.0	-0.0	-0.0	-0.0	-0.0	102406.796875	8089.6708984375	-3994.471435546875
